# xmcd
#
# Track frame offsets: 
#        150
#        12055
#        28165
#        44961
#        66457
#        86484
#        100347
#        115818
#        129272
#        141576
#        157015
#        178410
#        195855
#        211894
#        230417
#        248059
#        268476
#        269264
#        269987
#
# Disc length: 3821 seconds
#
# Revision: 18
# Processed by: cddbd v1.5.2PL0 Copyright (c) Steve Scherf et al.
# Submitted via: ExactAudioCopyFreeDBPlugin 1.0
#
DISCID=2a0eeb13
DTITLE=Garth Brooks - The Ultimate Hits [Disc 2]
DYEAR=2007
DGENRE=Country
TTITLE0=Callin' Baton Rouge
TTITLE1=Two Piña Coladas
TTITLE2=The Thunder Rolls
TTITLE3=That Summer
TTITLE4=The River
TTITLE5=Beer Run
TTITLE6=Unanswered Prayers
TTITLE7=Much Too Young (To Feel This Damn Old)
TTITLE8=Workin' for a Livin'
TTITLE9=What She's Doing Now
TTITLE10=When You Come Back to Me Again
TTITLE11=Standing Outside the Fire
TTITLE12=American Honky-Tonk Bar Association
TTITLE13=The Change
TTITLE14=Rodeo
TTITLE15=Wrapped Up in You
TTITLE16=Blank Track 1
TTITLE17=Blank Track 2
TTITLE18=Leave a Light On
EXTD=
EXTT0=
EXTT1=
EXTT2=
EXTT3=
EXTT4=
EXTT5=
EXTT6=
EXTT7=
EXTT8=
EXTT9=
EXTT10=
EXTT11=
EXTT12=
EXTT13=
EXTT14=
EXTT15=
EXTT16=
EXTT17=
EXTT18=
PLAYORDER=
